# xmcd
#
# Track frame offsets: 
#        150
#        15700
#        44150
#        63100
#
# Disc length: 1024 seconds
#
# Revision: 1
# Processed by: cddbd v1.5.2PL0 Copyright (c) Steve Scherf et al.
# Submitted via: ExactAudioCopy v0.99pb4
#
DISCID=2f03fe04
DTITLE=Bonnie Rait - You Got It
DYEAR=1995
DGENRE=Rock
TTITLE0=You Got It
TTITLE1=Feeling of Falling
TTITLE2=Circle Dance
TTITLE3=Whoopi Goldberg-You Got It ft. Mary Louise-Parker
EXTD=YEAR: 1995 ID3G: 2
EXTT0=
EXTT1=
EXTT2=
EXTT3=
PLAYORDER=
